<?xml version="1.0" encoding="UTF-8" standalone="no"?> <svg width="24" height="24" viewBox="0 0 24 24" fill="none" xmlns="http://www.w3.org/2000/svg">
<path d="M20.9921 6.963C20.9866 6.89189 20.9725 6.82171 20.9501 6.754C20.9388 6.6959 20.9221 6.63898 20.9001 6.584C20.8716 6.53343 20.8381 6.48586 20.8001 6.442C20.7642 6.38021 20.7216 6.32253 20.6731 6.27C20.6641 6.261 20.6601 6.249 20.6501 6.241C20.6121 6.21578 20.5724 6.19338 20.5311 6.174C20.4725 6.13418 20.4098 6.10067 20.3441 6.074C20.279 6.05389 20.212 6.04048 20.1441 6.034C20.0971 6.0189 20.0489 6.00753 20.0001 6H15.0001C14.7349 6 14.4805 6.10536 14.293 6.29289C14.1055 6.48043 14.0001 6.73478 14.0001 7C14.0001 7.26522 14.1055 7.51957 14.293 7.70711C14.4805 7.89464 14.7349 8 15.0001 8H17.8261L13.7901 12.708L9.51411 10.143C9.30954 10.0201 9.06778 9.97448 8.83249 10.0143C8.5972 10.0541 8.3839 10.1767 8.23111 10.36L3.23111 16.36C3.06137 16.5638 2.97955 16.8267 3.00365 17.0909C3.02775 17.355 3.15579 17.5988 3.35961 17.7685C3.56343 17.9382 3.82633 18.0201 4.09047 17.996C4.35462 17.9719 4.59837 17.8438 4.76811 17.64L9.22011 12.3L13.4851 14.86C13.6877 14.9816 13.9268 15.0275 14.16 14.9896C14.3932 14.9517 14.6054 14.8324 14.7591 14.653L19.0001 9.7V12C19.0001 12.2652 19.1055 12.5196 19.293 12.7071C19.4805 12.8946 19.7349 13 20.0001 13C20.2653 13 20.5197 12.8946 20.7072 12.7071C20.8948 12.5196 21.0001 12.2652 21.0001 12V7C21.0001 6.987 20.9931 6.976 20.9921 6.963Z" fill="#f6f7f9"/>
</svg>
